<svg width="66" height="36" viewBox="0 0 66 36" fill="none" xmlns="http://www.w3.org/2000/svg">
<mask id="path-1-outside-1_33_47" maskUnits="userSpaceOnUse" x="0" y="0" width="66" height="36" fill="black">
<rect fill="white" width="66" height="36"/>
<path d="M2 18C2 9.16344 9.16344 2 18 2H48C56.8366 2 64 9.16344 64 18C64 26.8366 56.8366 34 48 34H18C9.16344 34 2 26.8366 2 18Z"/>
<path d="M17.3729 13.228H20.7469C21.6336 13.228 22.3196 13.4567 22.8049 13.914C23.2996 14.3713 23.5469 14.9967 23.5469 15.79C23.5469 16.3593 23.4069 16.812 23.1269 17.148C22.8469 17.484 22.4689 17.722 21.9929 17.862V17.932C22.5623 18.0627 23.0196 18.3147 23.3649 18.688C23.7103 19.052 23.8829 19.57 23.8829 20.242C23.8829 20.6433 23.8176 21.012 23.6869 21.348C23.5563 21.684 23.3696 21.978 23.1269 22.23C22.8843 22.4727 22.5903 22.664 22.2449 22.804C21.9089 22.9347 21.5356 23 21.1249 23H17.3729V13.228ZM20.6489 21.796C21.1716 21.796 21.5729 21.6887 21.8529 21.474C22.1329 21.2593 22.2729 20.914 22.2729 20.438V19.934C22.2729 19.458 22.1329 19.1127 21.8529 18.898C21.5729 18.6833 21.1716 18.576 20.6489 18.576H18.9129V21.796H20.6489ZM20.4249 17.428C20.9196 17.428 21.2929 17.3347 21.5449 17.148C21.8063 16.952 21.9369 16.63 21.9369 16.182V15.678C21.9369 15.23 21.8063 14.9127 21.5449 14.726C21.2929 14.53 20.9196 14.432 20.4249 14.432H18.9129V17.428H20.4249Z"/>
<path d="M31.4935 23C31.0548 23 30.7235 22.888 30.4995 22.664C30.2848 22.44 30.1541 22.146 30.1075 21.782H30.0375C29.8975 22.2207 29.6408 22.5613 29.2675 22.804C28.9035 23.0467 28.4368 23.168 27.8675 23.168C27.1301 23.168 26.5421 22.9767 26.1035 22.594C25.6648 22.202 25.4455 21.6653 25.4455 20.984C25.4455 20.284 25.7021 19.752 26.2155 19.388C26.7381 19.0147 27.5361 18.828 28.6095 18.828H29.9955V18.268C29.9955 17.288 29.4775 16.798 28.4415 16.798C27.9748 16.798 27.5968 16.8913 27.3075 17.078C27.0181 17.2553 26.7755 17.4933 26.5795 17.792L25.6695 17.05C25.8748 16.658 26.2201 16.322 26.7055 16.042C27.1908 15.7527 27.8161 15.608 28.5815 15.608C29.4961 15.608 30.2148 15.8273 30.7375 16.266C31.2601 16.7047 31.5215 17.3393 31.5215 18.17V21.796H32.4315V23H31.4935ZM28.3015 22.048C28.7961 22.048 29.2021 21.936 29.5195 21.712C29.8368 21.488 29.9955 21.1987 29.9955 20.844V19.794H28.6375C27.5361 19.794 26.9855 20.1253 26.9855 20.788V21.068C26.9855 21.3947 27.1021 21.642 27.3355 21.81C27.5688 21.9687 27.8908 22.048 28.3015 22.048Z"/>
<path d="M37.466 23.168C36.9247 23.168 36.4393 23.0793 36.01 22.902C35.59 22.7247 35.2307 22.4727 34.932 22.146C34.6427 21.8193 34.4187 21.4227 34.26 20.956C34.1107 20.4893 34.036 19.9667 34.036 19.388C34.036 18.8093 34.1107 18.2867 34.26 17.82C34.4187 17.3533 34.6427 16.9567 34.932 16.63C35.2307 16.3033 35.59 16.0513 36.01 15.874C36.4393 15.6967 36.92 15.608 37.452 15.608C38.1987 15.608 38.796 15.7667 39.244 16.084C39.7013 16.4013 40.042 16.812 40.266 17.316L39.076 17.96C38.9453 17.624 38.7447 17.358 38.474 17.162C38.2127 16.966 37.872 16.868 37.452 16.868C36.8733 16.868 36.4253 17.0453 36.108 17.4C35.7907 17.7453 35.632 18.2073 35.632 18.786V19.99C35.632 20.5593 35.7907 21.0213 36.108 21.376C36.4253 21.7307 36.8827 21.908 37.48 21.908C37.928 21.908 38.292 21.8053 38.572 21.6C38.8613 21.3947 39.09 21.1147 39.258 20.76L40.378 21.446C40.1447 21.95 39.79 22.3653 39.314 22.692C38.838 23.0093 38.222 23.168 37.466 23.168Z"/>
<path d="M42.6265 12.64H44.1525V18.898H44.2225L45.3565 17.736L47.3865 15.776H49.1925L46.2665 18.618L49.5145 23H47.6805L45.1605 19.486L44.1525 20.424V23H42.6265V12.64Z"/>
</mask>
<path d="M2 18C2 9.16344 9.16344 2 18 2H48C56.8366 2 64 9.16344 64 18C64 26.8366 56.8366 34 48 34H18C9.16344 34 2 26.8366 2 18Z" fill="white"/>
<path d="M17.3729 13.228H20.7469C21.6336 13.228 22.3196 13.4567 22.8049 13.914C23.2996 14.3713 23.5469 14.9967 23.5469 15.79C23.5469 16.3593 23.4069 16.812 23.1269 17.148C22.8469 17.484 22.4689 17.722 21.9929 17.862V17.932C22.5623 18.0627 23.0196 18.3147 23.3649 18.688C23.7103 19.052 23.8829 19.57 23.8829 20.242C23.8829 20.6433 23.8176 21.012 23.6869 21.348C23.5563 21.684 23.3696 21.978 23.1269 22.23C22.8843 22.4727 22.5903 22.664 22.2449 22.804C21.9089 22.9347 21.5356 23 21.1249 23H17.3729V13.228ZM20.6489 21.796C21.1716 21.796 21.5729 21.6887 21.8529 21.474C22.1329 21.2593 22.2729 20.914 22.2729 20.438V19.934C22.2729 19.458 22.1329 19.1127 21.8529 18.898C21.5729 18.6833 21.1716 18.576 20.6489 18.576H18.9129V21.796H20.6489ZM20.4249 17.428C20.9196 17.428 21.2929 17.3347 21.5449 17.148C21.8063 16.952 21.9369 16.63 21.9369 16.182V15.678C21.9369 15.23 21.8063 14.9127 21.5449 14.726C21.2929 14.53 20.9196 14.432 20.4249 14.432H18.9129V17.428H20.4249Z" fill="black"/>
<path d="M31.4935 23C31.0548 23 30.7235 22.888 30.4995 22.664C30.2848 22.44 30.1541 22.146 30.1075 21.782H30.0375C29.8975 22.2207 29.6408 22.5613 29.2675 22.804C28.9035 23.0467 28.4368 23.168 27.8675 23.168C27.1301 23.168 26.5421 22.9767 26.1035 22.594C25.6648 22.202 25.4455 21.6653 25.4455 20.984C25.4455 20.284 25.7021 19.752 26.2155 19.388C26.7381 19.0147 27.5361 18.828 28.6095 18.828H29.9955V18.268C29.9955 17.288 29.4775 16.798 28.4415 16.798C27.9748 16.798 27.5968 16.8913 27.3075 17.078C27.0181 17.2553 26.7755 17.4933 26.5795 17.792L25.6695 17.05C25.8748 16.658 26.2201 16.322 26.7055 16.042C27.1908 15.7527 27.8161 15.608 28.5815 15.608C29.4961 15.608 30.2148 15.8273 30.7375 16.266C31.2601 16.7047 31.5215 17.3393 31.5215 18.17V21.796H32.4315V23H31.4935ZM28.3015 22.048C28.7961 22.048 29.2021 21.936 29.5195 21.712C29.8368 21.488 29.9955 21.1987 29.9955 20.844V19.794H28.6375C27.5361 19.794 26.9855 20.1253 26.9855 20.788V21.068C26.9855 21.3947 27.1021 21.642 27.3355 21.81C27.5688 21.9687 27.8908 22.048 28.3015 22.048Z" fill="black"/>
<path d="M37.466 23.168C36.9247 23.168 36.4393 23.0793 36.01 22.902C35.59 22.7247 35.2307 22.4727 34.932 22.146C34.6427 21.8193 34.4187 21.4227 34.26 20.956C34.1107 20.4893 34.036 19.9667 34.036 19.388C34.036 18.8093 34.1107 18.2867 34.26 17.82C34.4187 17.3533 34.6427 16.9567 34.932 16.63C35.2307 16.3033 35.59 16.0513 36.01 15.874C36.4393 15.6967 36.92 15.608 37.452 15.608C38.1987 15.608 38.796 15.7667 39.244 16.084C39.7013 16.4013 40.042 16.812 40.266 17.316L39.076 17.96C38.9453 17.624 38.7447 17.358 38.474 17.162C38.2127 16.966 37.872 16.868 37.452 16.868C36.8733 16.868 36.4253 17.0453 36.108 17.4C35.7907 17.7453 35.632 18.2073 35.632 18.786V19.99C35.632 20.5593 35.7907 21.0213 36.108 21.376C36.4253 21.7307 36.8827 21.908 37.48 21.908C37.928 21.908 38.292 21.8053 38.572 21.6C38.8613 21.3947 39.09 21.1147 39.258 20.76L40.378 21.446C40.1447 21.95 39.79 22.3653 39.314 22.692C38.838 23.0093 38.222 23.168 37.466 23.168Z" fill="black"/>
<path d="M42.6265 12.64H44.1525V18.898H44.2225L45.3565 17.736L47.3865 15.776H49.1925L46.2665 18.618L49.5145 23H47.6805L45.1605 19.486L44.1525 20.424V23H42.6265V12.64Z" fill="black"/>
<path d="M2 18C2 9.16344 9.16344 2 18 2H48C56.8366 2 64 9.16344 64 18C64 26.8366 56.8366 34 48 34H18C9.16344 34 2 26.8366 2 18Z" stroke="#5948AD" stroke-width="4" mask="url(#path-1-outside-1_33_47)"/>
<path d="M17.3729 13.228H20.7469C21.6336 13.228 22.3196 13.4567 22.8049 13.914C23.2996 14.3713 23.5469 14.9967 23.5469 15.79C23.5469 16.3593 23.4069 16.812 23.1269 17.148C22.8469 17.484 22.4689 17.722 21.9929 17.862V17.932C22.5623 18.0627 23.0196 18.3147 23.3649 18.688C23.7103 19.052 23.8829 19.57 23.8829 20.242C23.8829 20.6433 23.8176 21.012 23.6869 21.348C23.5563 21.684 23.3696 21.978 23.1269 22.23C22.8843 22.4727 22.5903 22.664 22.2449 22.804C21.9089 22.9347 21.5356 23 21.1249 23H17.3729V13.228ZM20.6489 21.796C21.1716 21.796 21.5729 21.6887 21.8529 21.474C22.1329 21.2593 22.2729 20.914 22.2729 20.438V19.934C22.2729 19.458 22.1329 19.1127 21.8529 18.898C21.5729 18.6833 21.1716 18.576 20.6489 18.576H18.9129V21.796H20.6489ZM20.4249 17.428C20.9196 17.428 21.2929 17.3347 21.5449 17.148C21.8063 16.952 21.9369 16.63 21.9369 16.182V15.678C21.9369 15.23 21.8063 14.9127 21.5449 14.726C21.2929 14.53 20.9196 14.432 20.4249 14.432H18.9129V17.428H20.4249Z" stroke="#5948AD" stroke-width="4" mask="url(#path-1-outside-1_33_47)"/>
<path d="M31.4935 23C31.0548 23 30.7235 22.888 30.4995 22.664C30.2848 22.44 30.1541 22.146 30.1075 21.782H30.0375C29.8975 22.2207 29.6408 22.5613 29.2675 22.804C28.9035 23.0467 28.4368 23.168 27.8675 23.168C27.1301 23.168 26.5421 22.9767 26.1035 22.594C25.6648 22.202 25.4455 21.6653 25.4455 20.984C25.4455 20.284 25.7021 19.752 26.2155 19.388C26.7381 19.0147 27.5361 18.828 28.6095 18.828H29.9955V18.268C29.9955 17.288 29.4775 16.798 28.4415 16.798C27.9748 16.798 27.5968 16.8913 27.3075 17.078C27.0181 17.2553 26.7755 17.4933 26.5795 17.792L25.6695 17.05C25.8748 16.658 26.2201 16.322 26.7055 16.042C27.1908 15.7527 27.8161 15.608 28.5815 15.608C29.4961 15.608 30.2148 15.8273 30.7375 16.266C31.2601 16.7047 31.5215 17.3393 31.5215 18.17V21.796H32.4315V23H31.4935ZM28.3015 22.048C28.7961 22.048 29.2021 21.936 29.5195 21.712C29.8368 21.488 29.9955 21.1987 29.9955 20.844V19.794H28.6375C27.5361 19.794 26.9855 20.1253 26.9855 20.788V21.068C26.9855 21.3947 27.1021 21.642 27.3355 21.81C27.5688 21.9687 27.8908 22.048 28.3015 22.048Z" stroke="#5948AD" stroke-width="4" mask="url(#path-1-outside-1_33_47)"/>
<path d="M37.466 23.168C36.9247 23.168 36.4393 23.0793 36.01 22.902C35.59 22.7247 35.2307 22.4727 34.932 22.146C34.6427 21.8193 34.4187 21.4227 34.26 20.956C34.1107 20.4893 34.036 19.9667 34.036 19.388C34.036 18.8093 34.1107 18.2867 34.26 17.82C34.4187 17.3533 34.6427 16.9567 34.932 16.63C35.2307 16.3033 35.59 16.0513 36.01 15.874C36.4393 15.6967 36.92 15.608 37.452 15.608C38.1987 15.608 38.796 15.7667 39.244 16.084C39.7013 16.4013 40.042 16.812 40.266 17.316L39.076 17.96C38.9453 17.624 38.7447 17.358 38.474 17.162C38.2127 16.966 37.872 16.868 37.452 16.868C36.8733 16.868 36.4253 17.0453 36.108 17.4C35.7907 17.7453 35.632 18.2073 35.632 18.786V19.99C35.632 20.5593 35.7907 21.0213 36.108 21.376C36.4253 21.7307 36.8827 21.908 37.48 21.908C37.928 21.908 38.292 21.8053 38.572 21.6C38.8613 21.3947 39.09 21.1147 39.258 20.76L40.378 21.446C40.1447 21.95 39.79 22.3653 39.314 22.692C38.838 23.0093 38.222 23.168 37.466 23.168Z" stroke="#5948AD" stroke-width="4" mask="url(#path-1-outside-1_33_47)"/>
<path d="M42.6265 12.64H44.1525V18.898H44.2225L45.3565 17.736L47.3865 15.776H49.1925L46.2665 18.618L49.5145 23H47.6805L45.1605 19.486L44.1525 20.424V23H42.6265V12.64Z" stroke="#5948AD" stroke-width="4" mask="url(#path-1-outside-1_33_47)"/>
</svg>
