<svg width="36" height="36" viewBox="0 0 36 36" fill="none" xmlns="http://www.w3.org/2000/svg">
<path d="M2 18C2 9.16344 9.16344 2 18 2C26.8366 2 34 9.16344 34 18C34 26.8366 26.8366 34 18 34C9.16344 34 2 26.8366 2 18Z" fill="white"/>
<path d="M11.7238 18.704C11.7238 18.064 11.8198 17.4453 12.0118 16.848C12.2251 16.2293 12.5024 15.6747 12.8438 15.184L10.7318 13.008L12.2998 11.504L14.4118 13.552C14.9024 13.1893 15.4571 12.912 16.0758 12.72C16.6944 12.528 17.3344 12.432 17.9958 12.432C18.6571 12.432 19.2757 12.528 19.8517 12.72C20.4491 12.912 21.0038 13.1893 21.5158 13.552L23.6598 11.504L25.1958 13.008L23.1478 15.152C23.4678 15.6427 23.7344 16.1973 23.9478 16.816C24.1611 17.4133 24.2677 18.0427 24.2677 18.704C24.2677 19.3653 24.1718 20.0053 23.9798 20.624C23.7878 21.2427 23.5104 21.7973 23.1478 22.288L25.1638 24.4L23.6598 25.904L21.5158 23.856C21.0251 24.1973 20.4811 24.464 19.8838 24.656C19.2864 24.848 18.6571 24.944 17.9958 24.944C17.3344 24.944 16.6944 24.848 16.0758 24.656C15.4571 24.4427 14.9024 24.1653 14.4118 23.824L12.2998 25.872L10.7638 24.368L12.8438 22.256C12.5024 21.7653 12.2251 21.2213 12.0118 20.624C11.8198 20.0053 11.7238 19.3653 11.7238 18.704ZM13.8678 18.704C13.8678 19.472 14.0491 20.1653 14.4118 20.784C14.7744 21.4027 15.2651 21.904 15.8838 22.288C16.5238 22.6507 17.2278 22.832 17.9958 22.832C18.7851 22.832 19.4891 22.6507 20.1077 22.288C20.7264 21.904 21.2171 21.4027 21.5798 20.784C21.9637 20.1653 22.1558 19.472 22.1558 18.704C22.1558 17.9147 21.9637 17.2107 21.5798 16.592C21.2171 15.952 20.7264 15.4507 20.1077 15.088C19.4891 14.704 18.7851 14.512 17.9958 14.512C17.2278 14.512 16.5238 14.704 15.8838 15.088C15.2651 15.4507 14.7744 15.952 14.4118 16.592C14.0491 17.2107 13.8678 17.9147 13.8678 18.704Z" fill="black"/>
<path d="M1 18C1 27.3888 8.61116 35 18 35C27.3888 35 35 27.3888 35 18C35 8.61116 27.3888 1 18 1C8.61116 1 1 8.61116 1 18Z" stroke="#5948AD" stroke-width="2"/>
</svg>
