<svg width="300" height="274" viewBox="0 0 300 274" fill="none" xmlns="http://www.w3.org/2000/svg">
<path d="M0 25C0 11.1929 11.1929 0 25 0H275C288.807 0 300 11.1929 300 25V249C300 262.807 288.807 274 275 274H25C11.1929 274 0 262.807 0 249V25Z" fill="#EAE6FF"/>
<path d="M25 1H275C288.255 1 299 11.7452 299 25V249C299 262.255 288.255 273 275 273H25C11.7452 273 1 262.255 1 249V25C1 11.7452 11.7452 1 25 1Z" stroke="#5948AD" stroke-opacity="0.9" stroke-width="2"/>
<path fill-rule="evenodd" clip-rule="evenodd" d="M25 0C11.1929 0 0 11.1928 0 25V55.3008C0 41.4936 11.1929 30.3008 25 30.3008H275C288.807 30.3008 300 41.4936 300 55.3008V25C300 11.1929 288.807 0 275 0H25Z" fill="#5948AD" fill-opacity="0.3"/>
<path d="M1 25C1 11.7451 11.7452 1 25 1H275C288.255 1 299 11.7452 299 25V45.2832C295.078 35.8967 285.809 29.3008 275 29.3008H25C14.191 29.3008 4.92247 35.8967 1 45.2832V25Z" stroke="#5948AD" stroke-opacity="0.9" stroke-width="2"/>
</svg>
