<svg width="66" height="36" viewBox="0 0 66 36" fill="none" xmlns="http://www.w3.org/2000/svg">
<path d="M2 18C2 9.16344 9.16344 2 18 2H48C56.8366 2 64 9.16344 64 18C64 26.8366 56.8366 34 48 34H18C9.16344 34 2 26.8366 2 18Z" fill="white"/>
<path d="M30.6255 21.656H30.5275C30.4435 21.852 30.3408 22.0433 30.2195 22.23C30.1075 22.4073 29.9628 22.566 29.7855 22.706C29.6175 22.846 29.4121 22.958 29.1695 23.042C28.9268 23.126 28.6468 23.168 28.3295 23.168C27.3121 23.168 26.5468 22.734 26.0335 21.866C25.5201 20.998 25.2635 19.7707 25.2635 18.184C25.2635 16.5227 25.5575 15.2533 26.1455 14.376C26.7335 13.4987 27.6341 13.06 28.8475 13.06C29.3235 13.06 29.7388 13.1253 30.0935 13.256C30.4575 13.3867 30.7655 13.564 31.0175 13.788C31.2695 14.0027 31.4795 14.2593 31.6475 14.558C31.8155 14.8473 31.9508 15.1553 32.0535 15.482L30.6395 15.958C30.5648 15.7433 30.4808 15.5427 30.3875 15.356C30.2941 15.16 30.1775 14.9873 30.0375 14.838C29.9068 14.6887 29.7435 14.572 29.5475 14.488C29.3608 14.404 29.1321 14.362 28.8615 14.362C28.1801 14.362 27.6855 14.628 27.3775 15.16C27.0788 15.6827 26.9295 16.392 26.9295 17.288V18.842C26.9295 19.29 26.9621 19.7007 27.0275 20.074C27.0928 20.4473 27.2001 20.7693 27.3495 21.04C27.5081 21.3013 27.7088 21.5067 27.9515 21.656C28.2035 21.8053 28.5068 21.88 28.8615 21.88C29.4308 21.88 29.8648 21.712 30.1635 21.376C30.4715 21.0307 30.6255 20.592 30.6255 20.06V19.178H28.7355V18.002H32.0535V23H30.6255V21.656Z" fill="black"/>
<path d="M37.2 23.168C36.584 23.168 36.0473 23.056 35.59 22.832C35.142 22.5987 34.7687 22.2673 34.47 21.838C34.1807 21.4087 33.966 20.8813 33.826 20.256C33.686 19.6307 33.616 18.9167 33.616 18.114C33.616 17.3207 33.686 16.6113 33.826 15.986C33.966 15.3513 34.1807 14.8193 34.47 14.39C34.7687 13.9607 35.142 13.634 35.59 13.41C36.0473 13.1767 36.584 13.06 37.2 13.06C37.816 13.06 38.348 13.1767 38.796 13.41C39.2533 13.634 39.6267 13.9607 39.916 14.39C40.2147 14.8193 40.434 15.3513 40.574 15.986C40.714 16.6113 40.784 17.3207 40.784 18.114C40.784 18.9167 40.714 19.6307 40.574 20.256C40.434 20.8813 40.2147 21.4087 39.916 21.838C39.6267 22.2673 39.2533 22.5987 38.796 22.832C38.348 23.056 37.816 23.168 37.2 23.168ZM37.2 21.866C37.9 21.866 38.3947 21.6047 38.684 21.082C38.9733 20.55 39.118 19.8313 39.118 18.926V17.288C39.118 16.392 38.9733 15.6827 38.684 15.16C38.3947 14.628 37.9 14.362 37.2 14.362C36.5 14.362 36.0053 14.628 35.716 15.16C35.4267 15.6827 35.282 16.392 35.282 17.288V18.94C35.282 19.836 35.4267 20.55 35.716 21.082C36.0053 21.6047 36.5 21.866 37.2 21.866Z" fill="black"/>
<path d="M48 1H18C8.61116 1 1 8.61116 1 18C1 27.3888 8.61116 35 18 35H48C57.3888 35 65 27.3888 65 18C65 8.61116 57.3888 1 48 1Z" stroke="#5948AD" stroke-width="2"/>
</svg>
