<svg width="66" height="36" viewBox="0 0 66 36" fill="none" xmlns="http://www.w3.org/2000/svg">
<path d="M2 18C2 9.16344 9.16344 2 18 2H48C56.8366 2 64 9.16344 64 18C64 26.8366 56.8366 34 48 34H18C9.16344 34 2 26.8366 2 18Z" fill="white"/>
<path d="M28.8055 23.168C28.1895 23.168 27.6528 23.056 27.1955 22.832C26.7475 22.5987 26.3741 22.2673 26.0755 21.838C25.7861 21.4087 25.5715 20.8813 25.4315 20.256C25.2915 19.6307 25.2215 18.9167 25.2215 18.114C25.2215 17.3207 25.2915 16.6113 25.4315 15.986C25.5715 15.3513 25.7861 14.8193 26.0755 14.39C26.3741 13.9607 26.7475 13.634 27.1955 13.41C27.6528 13.1767 28.1895 13.06 28.8055 13.06C29.4215 13.06 29.9535 13.1767 30.4015 13.41C30.8588 13.634 31.2321 13.9607 31.5215 14.39C31.8201 14.8193 32.0395 15.3513 32.1795 15.986C32.3195 16.6113 32.3895 17.3207 32.3895 18.114C32.3895 18.9167 32.3195 19.6307 32.1795 20.256C32.0395 20.8813 31.8201 21.4087 31.5215 21.838C31.2321 22.2673 30.8588 22.5987 30.4015 22.832C29.9535 23.056 29.4215 23.168 28.8055 23.168ZM28.8055 21.866C29.5055 21.866 30.0001 21.6047 30.2895 21.082C30.5788 20.55 30.7235 19.8313 30.7235 18.926V17.288C30.7235 16.392 30.5788 15.6827 30.2895 15.16C30.0001 14.628 29.5055 14.362 28.8055 14.362C28.1055 14.362 27.6108 14.628 27.3215 15.16C27.0321 15.6827 26.8875 16.392 26.8875 17.288V18.94C26.8875 19.836 27.0321 20.55 27.3215 21.082C27.6108 21.6047 28.1055 21.866 28.8055 21.866Z" fill="black"/>
<path d="M36.836 18.506L35.66 19.976V23H34.092V13.228H35.66V17.904H35.73L36.92 16.28L39.314 13.228H41.12L37.9 17.344L41.246 23H39.454L36.836 18.506Z" fill="black"/>
<path d="M18 1C8.61116 1 1 8.61116 1 18C1 27.3888 8.61116 35 18 35H48C57.3888 35 65 27.3888 65 18C65 8.61116 57.3888 1 48 1H18Z" stroke="#5948AD" stroke-width="2"/>
</svg>
