<svg width="100" height="37" viewBox="0 0 100 37" fill="none" xmlns="http://www.w3.org/2000/svg">
<mask id="path-1-outside-1_33_62" maskUnits="userSpaceOnUse" x="0" y="0" width="100" height="37" fill="black">
<rect fill="white" width="100" height="37"/>
<path d="M2 18.5C2 9.3873 9.3873 2 18.5 2H81.5C90.6127 2 98 9.3873 98 18.5C98 27.6127 90.6127 35 81.5 35H18.5C9.3873 35 2 27.6127 2 18.5Z"/>
<path d="M21.7951 24V14.228H25.4491C26.3825 14.228 27.0918 14.4893 27.5771 15.012C28.0718 15.5347 28.3191 16.2533 28.3191 17.168C28.3191 18.0827 28.0718 18.8013 27.5771 19.324C27.0918 19.8467 26.3825 20.108 25.4491 20.108H23.3631V24H21.7951ZM23.3631 18.806H25.2111C26.1818 18.806 26.6671 18.358 26.6671 17.462V16.86C26.6671 15.9733 26.1818 15.53 25.2111 15.53H23.3631V18.806Z"/>
<path d="M35.9017 24C35.463 24 35.1317 23.888 34.9077 23.664C34.693 23.44 34.5623 23.146 34.5157 22.782H34.4457C34.3057 23.2207 34.049 23.5613 33.6757 23.804C33.3117 24.0467 32.845 24.168 32.2757 24.168C31.5383 24.168 30.9503 23.9767 30.5117 23.594C30.073 23.202 29.8537 22.6653 29.8537 21.984C29.8537 21.284 30.1103 20.752 30.6237 20.388C31.1463 20.0147 31.9443 19.828 33.0177 19.828H34.4037V19.268C34.4037 18.288 33.8857 17.798 32.8497 17.798C32.383 17.798 32.005 17.8913 31.7157 18.078C31.4263 18.2553 31.1837 18.4933 30.9877 18.792L30.0777 18.05C30.283 17.658 30.6283 17.322 31.1137 17.042C31.599 16.7527 32.2243 16.608 32.9897 16.608C33.9043 16.608 34.623 16.8273 35.1457 17.266C35.6683 17.7047 35.9297 18.3393 35.9297 19.17V22.796H36.8397V24H35.9017ZM32.7097 23.048C33.2043 23.048 33.6103 22.936 33.9277 22.712C34.245 22.488 34.4037 22.1987 34.4037 21.844V20.794H33.0457C31.9443 20.794 31.3937 21.1253 31.3937 21.788V22.068C31.3937 22.3947 31.5103 22.642 31.7437 22.81C31.977 22.9687 32.299 23.048 32.7097 23.048Z"/>
<path d="M43.7222 16.776H45.2622L41.7622 25.4C41.5755 25.8667 41.3282 26.2167 41.0202 26.45C40.7215 26.6833 40.2875 26.8 39.7182 26.8H38.5002V25.568H40.2082L40.8662 23.902L37.9542 16.776H39.5502L40.6982 19.8L41.5942 22.278H41.6782L42.5742 19.8L43.7222 16.776Z"/>
<path d="M46.4187 24V16.776H47.7207V17.714H47.7907C47.9027 17.406 48.0614 17.1447 48.2667 16.93C48.4814 16.7153 48.7847 16.608 49.1767 16.608C49.5594 16.608 49.8534 16.7153 50.0587 16.93C50.2734 17.1353 50.4087 17.42 50.4647 17.784H50.5207C50.6514 17.4573 50.8334 17.182 51.0667 16.958C51.3001 16.7247 51.6361 16.608 52.0747 16.608C52.6347 16.608 53.0221 16.804 53.2367 17.196C53.4607 17.588 53.5727 18.162 53.5727 18.918V24H52.2707V19.114C52.2707 18.61 52.2101 18.2647 52.0887 18.078C51.9674 17.882 51.7714 17.784 51.5007 17.784C51.2581 17.784 51.0527 17.868 50.8847 18.036C50.7261 18.1947 50.6467 18.4373 50.6467 18.764V24H49.3447V19.114C49.3447 18.61 49.2841 18.2647 49.1627 18.078C49.0507 17.882 48.8594 17.784 48.5887 17.784C48.3367 17.784 48.1267 17.868 47.9587 18.036C47.8001 18.1947 47.7207 18.4373 47.7207 18.764V24H46.4187Z"/>
<path d="M58.5513 24.168C58.0006 24.168 57.5059 24.0793 57.0673 23.902C56.6286 23.7247 56.2599 23.4727 55.9613 23.146C55.6626 22.8193 55.4339 22.4273 55.2753 21.97C55.1166 21.5033 55.0373 20.9807 55.0373 20.402C55.0373 19.8233 55.1166 19.3007 55.2753 18.834C55.4433 18.3673 55.6719 17.9707 55.9613 17.644C56.2599 17.308 56.6193 17.0513 57.0393 16.874C57.4593 16.6967 57.9259 16.608 58.4393 16.608C58.9433 16.608 59.4006 16.6967 59.8113 16.874C60.2219 17.042 60.5719 17.2847 60.8613 17.602C61.1506 17.9193 61.3699 18.2973 61.5193 18.736C61.6779 19.1747 61.7573 19.66 61.7573 20.192V20.766H56.5773V21.004C56.5773 21.5733 56.7546 22.04 57.1093 22.404C57.4639 22.7587 57.9539 22.936 58.5793 22.936C59.0459 22.936 59.4426 22.838 59.7693 22.642C60.1053 22.4367 60.3759 22.166 60.5813 21.83L61.5333 22.67C61.2906 23.09 60.9173 23.4447 60.4133 23.734C59.9186 24.0233 59.2979 24.168 58.5513 24.168ZM58.4393 17.77C58.1686 17.77 57.9166 17.8167 57.6833 17.91C57.4593 18.0033 57.2633 18.1387 57.0953 18.316C56.9366 18.484 56.8106 18.6847 56.7173 18.918C56.6239 19.1513 56.5773 19.408 56.5773 19.688V19.786H60.2033V19.646C60.2033 19.0767 60.0399 18.624 59.7133 18.288C59.3959 17.9427 58.9713 17.77 58.4393 17.77Z"/>
<path d="M63.7678 24V16.776H65.2938V18.008H65.3638C65.4385 17.8213 65.5318 17.644 65.6438 17.476C65.7651 17.2987 65.9098 17.1493 66.0778 17.028C66.2458 16.8973 66.4418 16.7947 66.6658 16.72C66.8898 16.6453 67.1511 16.608 67.4498 16.608C68.1778 16.608 68.7658 16.846 69.2138 17.322C69.6618 17.798 69.8858 18.4747 69.8858 19.352V24H68.3598V19.576C68.3598 18.428 67.8605 17.854 66.8618 17.854C66.6658 17.854 66.4745 17.882 66.2878 17.938C66.1011 17.9847 65.9331 18.0593 65.7838 18.162C65.6345 18.2647 65.5131 18.3953 65.4198 18.554C65.3358 18.7127 65.2938 18.8947 65.2938 19.1V24H63.7678Z"/>
<path d="M75.6203 24C74.9857 24 74.519 23.832 74.2203 23.496C73.9217 23.1507 73.7723 22.7073 73.7723 22.166V18.008H71.5463V16.776H73.1283C73.399 16.776 73.5903 16.7247 73.7023 16.622C73.8143 16.51 73.8703 16.314 73.8703 16.034V14.228H75.2983V16.776H78.3783V18.008H75.2983V22.768H78.3783V24H75.6203Z"/>
</mask>
<path d="M2 18.5C2 9.3873 9.3873 2 18.5 2H81.5C90.6127 2 98 9.3873 98 18.5C98 27.6127 90.6127 35 81.5 35H18.5C9.3873 35 2 27.6127 2 18.5Z" fill="white"/>
<path d="M21.7951 24V14.228H25.4491C26.3825 14.228 27.0918 14.4893 27.5771 15.012C28.0718 15.5347 28.3191 16.2533 28.3191 17.168C28.3191 18.0827 28.0718 18.8013 27.5771 19.324C27.0918 19.8467 26.3825 20.108 25.4491 20.108H23.3631V24H21.7951ZM23.3631 18.806H25.2111C26.1818 18.806 26.6671 18.358 26.6671 17.462V16.86C26.6671 15.9733 26.1818 15.53 25.2111 15.53H23.3631V18.806Z" fill="black"/>
<path d="M35.9017 24C35.463 24 35.1317 23.888 34.9077 23.664C34.693 23.44 34.5623 23.146 34.5157 22.782H34.4457C34.3057 23.2207 34.049 23.5613 33.6757 23.804C33.3117 24.0467 32.845 24.168 32.2757 24.168C31.5383 24.168 30.9503 23.9767 30.5117 23.594C30.073 23.202 29.8537 22.6653 29.8537 21.984C29.8537 21.284 30.1103 20.752 30.6237 20.388C31.1463 20.0147 31.9443 19.828 33.0177 19.828H34.4037V19.268C34.4037 18.288 33.8857 17.798 32.8497 17.798C32.383 17.798 32.005 17.8913 31.7157 18.078C31.4263 18.2553 31.1837 18.4933 30.9877 18.792L30.0777 18.05C30.283 17.658 30.6283 17.322 31.1137 17.042C31.599 16.7527 32.2243 16.608 32.9897 16.608C33.9043 16.608 34.623 16.8273 35.1457 17.266C35.6683 17.7047 35.9297 18.3393 35.9297 19.17V22.796H36.8397V24H35.9017ZM32.7097 23.048C33.2043 23.048 33.6103 22.936 33.9277 22.712C34.245 22.488 34.4037 22.1987 34.4037 21.844V20.794H33.0457C31.9443 20.794 31.3937 21.1253 31.3937 21.788V22.068C31.3937 22.3947 31.5103 22.642 31.7437 22.81C31.977 22.9687 32.299 23.048 32.7097 23.048Z" fill="black"/>
<path d="M43.7222 16.776H45.2622L41.7622 25.4C41.5755 25.8667 41.3282 26.2167 41.0202 26.45C40.7215 26.6833 40.2875 26.8 39.7182 26.8H38.5002V25.568H40.2082L40.8662 23.902L37.9542 16.776H39.5502L40.6982 19.8L41.5942 22.278H41.6782L42.5742 19.8L43.7222 16.776Z" fill="black"/>
<path d="M46.4187 24V16.776H47.7207V17.714H47.7907C47.9027 17.406 48.0614 17.1447 48.2667 16.93C48.4814 16.7153 48.7847 16.608 49.1767 16.608C49.5594 16.608 49.8534 16.7153 50.0587 16.93C50.2734 17.1353 50.4087 17.42 50.4647 17.784H50.5207C50.6514 17.4573 50.8334 17.182 51.0667 16.958C51.3001 16.7247 51.6361 16.608 52.0747 16.608C52.6347 16.608 53.0221 16.804 53.2367 17.196C53.4607 17.588 53.5727 18.162 53.5727 18.918V24H52.2707V19.114C52.2707 18.61 52.2101 18.2647 52.0887 18.078C51.9674 17.882 51.7714 17.784 51.5007 17.784C51.2581 17.784 51.0527 17.868 50.8847 18.036C50.7261 18.1947 50.6467 18.4373 50.6467 18.764V24H49.3447V19.114C49.3447 18.61 49.2841 18.2647 49.1627 18.078C49.0507 17.882 48.8594 17.784 48.5887 17.784C48.3367 17.784 48.1267 17.868 47.9587 18.036C47.8001 18.1947 47.7207 18.4373 47.7207 18.764V24H46.4187Z" fill="black"/>
<path d="M58.5513 24.168C58.0006 24.168 57.5059 24.0793 57.0673 23.902C56.6286 23.7247 56.2599 23.4727 55.9613 23.146C55.6626 22.8193 55.4339 22.4273 55.2753 21.97C55.1166 21.5033 55.0373 20.9807 55.0373 20.402C55.0373 19.8233 55.1166 19.3007 55.2753 18.834C55.4433 18.3673 55.6719 17.9707 55.9613 17.644C56.2599 17.308 56.6193 17.0513 57.0393 16.874C57.4593 16.6967 57.9259 16.608 58.4393 16.608C58.9433 16.608 59.4006 16.6967 59.8113 16.874C60.2219 17.042 60.5719 17.2847 60.8613 17.602C61.1506 17.9193 61.3699 18.2973 61.5193 18.736C61.6779 19.1747 61.7573 19.66 61.7573 20.192V20.766H56.5773V21.004C56.5773 21.5733 56.7546 22.04 57.1093 22.404C57.4639 22.7587 57.9539 22.936 58.5793 22.936C59.0459 22.936 59.4426 22.838 59.7693 22.642C60.1053 22.4367 60.3759 22.166 60.5813 21.83L61.5333 22.67C61.2906 23.09 60.9173 23.4447 60.4133 23.734C59.9186 24.0233 59.2979 24.168 58.5513 24.168ZM58.4393 17.77C58.1686 17.77 57.9166 17.8167 57.6833 17.91C57.4593 18.0033 57.2633 18.1387 57.0953 18.316C56.9366 18.484 56.8106 18.6847 56.7173 18.918C56.6239 19.1513 56.5773 19.408 56.5773 19.688V19.786H60.2033V19.646C60.2033 19.0767 60.0399 18.624 59.7133 18.288C59.3959 17.9427 58.9713 17.77 58.4393 17.77Z" fill="black"/>
<path d="M63.7678 24V16.776H65.2938V18.008H65.3638C65.4385 17.8213 65.5318 17.644 65.6438 17.476C65.7651 17.2987 65.9098 17.1493 66.0778 17.028C66.2458 16.8973 66.4418 16.7947 66.6658 16.72C66.8898 16.6453 67.1511 16.608 67.4498 16.608C68.1778 16.608 68.7658 16.846 69.2138 17.322C69.6618 17.798 69.8858 18.4747 69.8858 19.352V24H68.3598V19.576C68.3598 18.428 67.8605 17.854 66.8618 17.854C66.6658 17.854 66.4745 17.882 66.2878 17.938C66.1011 17.9847 65.9331 18.0593 65.7838 18.162C65.6345 18.2647 65.5131 18.3953 65.4198 18.554C65.3358 18.7127 65.2938 18.8947 65.2938 19.1V24H63.7678Z" fill="black"/>
<path d="M75.6203 24C74.9857 24 74.519 23.832 74.2203 23.496C73.9217 23.1507 73.7723 22.7073 73.7723 22.166V18.008H71.5463V16.776H73.1283C73.399 16.776 73.5903 16.7247 73.7023 16.622C73.8143 16.51 73.8703 16.314 73.8703 16.034V14.228H75.2983V16.776H78.3783V18.008H75.2983V22.768H78.3783V24H75.6203Z" fill="black"/>
<path d="M2 18.5C2 9.3873 9.3873 2 18.5 2H81.5C90.6127 2 98 9.3873 98 18.5C98 27.6127 90.6127 35 81.5 35H18.5C9.3873 35 2 27.6127 2 18.5Z" stroke="#5948AD" stroke-width="4" mask="url(#path-1-outside-1_33_62)"/>
<path d="M21.7951 24V14.228H25.4491C26.3825 14.228 27.0918 14.4893 27.5771 15.012C28.0718 15.5347 28.3191 16.2533 28.3191 17.168C28.3191 18.0827 28.0718 18.8013 27.5771 19.324C27.0918 19.8467 26.3825 20.108 25.4491 20.108H23.3631V24H21.7951ZM23.3631 18.806H25.2111C26.1818 18.806 26.6671 18.358 26.6671 17.462V16.86C26.6671 15.9733 26.1818 15.53 25.2111 15.53H23.3631V18.806Z" stroke="#5948AD" stroke-width="4" mask="url(#path-1-outside-1_33_62)"/>
<path d="M35.9017 24C35.463 24 35.1317 23.888 34.9077 23.664C34.693 23.44 34.5623 23.146 34.5157 22.782H34.4457C34.3057 23.2207 34.049 23.5613 33.6757 23.804C33.3117 24.0467 32.845 24.168 32.2757 24.168C31.5383 24.168 30.9503 23.9767 30.5117 23.594C30.073 23.202 29.8537 22.6653 29.8537 21.984C29.8537 21.284 30.1103 20.752 30.6237 20.388C31.1463 20.0147 31.9443 19.828 33.0177 19.828H34.4037V19.268C34.4037 18.288 33.8857 17.798 32.8497 17.798C32.383 17.798 32.005 17.8913 31.7157 18.078C31.4263 18.2553 31.1837 18.4933 30.9877 18.792L30.0777 18.05C30.283 17.658 30.6283 17.322 31.1137 17.042C31.599 16.7527 32.2243 16.608 32.9897 16.608C33.9043 16.608 34.623 16.8273 35.1457 17.266C35.6683 17.7047 35.9297 18.3393 35.9297 19.17V22.796H36.8397V24H35.9017ZM32.7097 23.048C33.2043 23.048 33.6103 22.936 33.9277 22.712C34.245 22.488 34.4037 22.1987 34.4037 21.844V20.794H33.0457C31.9443 20.794 31.3937 21.1253 31.3937 21.788V22.068C31.3937 22.3947 31.5103 22.642 31.7437 22.81C31.977 22.9687 32.299 23.048 32.7097 23.048Z" stroke="#5948AD" stroke-width="4" mask="url(#path-1-outside-1_33_62)"/>
<path d="M43.7222 16.776H45.2622L41.7622 25.4C41.5755 25.8667 41.3282 26.2167 41.0202 26.45C40.7215 26.6833 40.2875 26.8 39.7182 26.8H38.5002V25.568H40.2082L40.8662 23.902L37.9542 16.776H39.5502L40.6982 19.8L41.5942 22.278H41.6782L42.5742 19.8L43.7222 16.776Z" stroke="#5948AD" stroke-width="4" mask="url(#path-1-outside-1_33_62)"/>
<path d="M46.4187 24V16.776H47.7207V17.714H47.7907C47.9027 17.406 48.0614 17.1447 48.2667 16.93C48.4814 16.7153 48.7847 16.608 49.1767 16.608C49.5594 16.608 49.8534 16.7153 50.0587 16.93C50.2734 17.1353 50.4087 17.42 50.4647 17.784H50.5207C50.6514 17.4573 50.8334 17.182 51.0667 16.958C51.3001 16.7247 51.6361 16.608 52.0747 16.608C52.6347 16.608 53.0221 16.804 53.2367 17.196C53.4607 17.588 53.5727 18.162 53.5727 18.918V24H52.2707V19.114C52.2707 18.61 52.2101 18.2647 52.0887 18.078C51.9674 17.882 51.7714 17.784 51.5007 17.784C51.2581 17.784 51.0527 17.868 50.8847 18.036C50.7261 18.1947 50.6467 18.4373 50.6467 18.764V24H49.3447V19.114C49.3447 18.61 49.2841 18.2647 49.1627 18.078C49.0507 17.882 48.8594 17.784 48.5887 17.784C48.3367 17.784 48.1267 17.868 47.9587 18.036C47.8001 18.1947 47.7207 18.4373 47.7207 18.764V24H46.4187Z" stroke="#5948AD" stroke-width="4" mask="url(#path-1-outside-1_33_62)"/>
<path d="M58.5513 24.168C58.0006 24.168 57.5059 24.0793 57.0673 23.902C56.6286 23.7247 56.2599 23.4727 55.9613 23.146C55.6626 22.8193 55.4339 22.4273 55.2753 21.97C55.1166 21.5033 55.0373 20.9807 55.0373 20.402C55.0373 19.8233 55.1166 19.3007 55.2753 18.834C55.4433 18.3673 55.6719 17.9707 55.9613 17.644C56.2599 17.308 56.6193 17.0513 57.0393 16.874C57.4593 16.6967 57.9259 16.608 58.4393 16.608C58.9433 16.608 59.4006 16.6967 59.8113 16.874C60.2219 17.042 60.5719 17.2847 60.8613 17.602C61.1506 17.9193 61.3699 18.2973 61.5193 18.736C61.6779 19.1747 61.7573 19.66 61.7573 20.192V20.766H56.5773V21.004C56.5773 21.5733 56.7546 22.04 57.1093 22.404C57.4639 22.7587 57.9539 22.936 58.5793 22.936C59.0459 22.936 59.4426 22.838 59.7693 22.642C60.1053 22.4367 60.3759 22.166 60.5813 21.83L61.5333 22.67C61.2906 23.09 60.9173 23.4447 60.4133 23.734C59.9186 24.0233 59.2979 24.168 58.5513 24.168ZM58.4393 17.77C58.1686 17.77 57.9166 17.8167 57.6833 17.91C57.4593 18.0033 57.2633 18.1387 57.0953 18.316C56.9366 18.484 56.8106 18.6847 56.7173 18.918C56.6239 19.1513 56.5773 19.408 56.5773 19.688V19.786H60.2033V19.646C60.2033 19.0767 60.0399 18.624 59.7133 18.288C59.3959 17.9427 58.9713 17.77 58.4393 17.77Z" stroke="#5948AD" stroke-width="4" mask="url(#path-1-outside-1_33_62)"/>
<path d="M63.7678 24V16.776H65.2938V18.008H65.3638C65.4385 17.8213 65.5318 17.644 65.6438 17.476C65.7651 17.2987 65.9098 17.1493 66.0778 17.028C66.2458 16.8973 66.4418 16.7947 66.6658 16.72C66.8898 16.6453 67.1511 16.608 67.4498 16.608C68.1778 16.608 68.7658 16.846 69.2138 17.322C69.6618 17.798 69.8858 18.4747 69.8858 19.352V24H68.3598V19.576C68.3598 18.428 67.8605 17.854 66.8618 17.854C66.6658 17.854 66.4745 17.882 66.2878 17.938C66.1011 17.9847 65.9331 18.0593 65.7838 18.162C65.6345 18.2647 65.5131 18.3953 65.4198 18.554C65.3358 18.7127 65.2938 18.8947 65.2938 19.1V24H63.7678Z" stroke="#5948AD" stroke-width="4" mask="url(#path-1-outside-1_33_62)"/>
<path d="M75.6203 24C74.9857 24 74.519 23.832 74.2203 23.496C73.9217 23.1507 73.7723 22.7073 73.7723 22.166V18.008H71.5463V16.776H73.1283C73.399 16.776 73.5903 16.7247 73.7023 16.622C73.8143 16.51 73.8703 16.314 73.8703 16.034V14.228H75.2983V16.776H78.3783V18.008H75.2983V22.768H78.3783V24H75.6203Z" stroke="#5948AD" stroke-width="4" mask="url(#path-1-outside-1_33_62)"/>
</svg>
