<svg width="600" height="650" viewBox="0 0 600 650" fill="none" xmlns="http://www.w3.org/2000/svg">
<path d="M0 25C0 11.1929 11.1929 0 25 0H575C588.807 0 600 11.1929 600 25V625C600 638.807 588.807 650 575 650H25C11.1929 650 0 638.807 0 625V25Z" fill="#EAE6FF"/>
<path d="M25 1H575C588.255 1 599 11.7452 599 25V625C599 638.255 588.255 649 575 649H25C11.7452 649 1 638.255 1 625V25C1 11.7452 11.7452 1 25 1Z" stroke="#5948AD" stroke-opacity="0.9" stroke-width="2"/>
<path fill-rule="evenodd" clip-rule="evenodd" d="M25 0C11.1929 0 0 11.1928 0 25V55.3008C0 41.4936 11.1929 30.3008 25 30.3008H575C588.807 30.3008 600 41.4936 600 55.3008V25C600 11.1929 588.807 0 575 0H25Z" fill="#5948AD" fill-opacity="0.3"/>
<path d="M1 25C1 11.7451 11.7452 1 25 1H575C588.255 1 599 11.7452 599 25V45.2831C595.078 35.8967 585.809 29.3008 575 29.3008H25C14.191 29.3008 4.92247 35.8967 1 45.2832V25Z" stroke="#5948AD" stroke-opacity="0.9" stroke-width="2"/>
</svg>
